<svg xmlns="http://www.w3.org/2000/svg" viewBox="0 0 179.35 185"><defs><style>.cls-1{fill:#ff3d3d;}</style></defs><title>Circle</title><g id="Слой_2" data-name="Слой 2"><g id="Слой_1-2" data-name="Слой 1"><path class="cls-1" d="M179.34,96.24c-.18-20-8.23-37.2-20.87-52.38-1.78-2.14-3.91-4.43-6.38-5.48-9.89-4.22-19.94-8.08-30-11.82-1.61-.6-3.59-.18-5.45-.11a.74.74,0,0,0-.69.54h0a.74.74,0,0,0,.3.81c1.09.73,2.16,1.49,3.29,2.17,2.46,1.49,5,2.89,7.44,4.37l-4.88-1.83c-1.61-.6-3.59-.18-5.45-.11a.74.74,0,0,0-.69.54h0a.74.74,0,0,0,.3.81c1.09.73,2.16,1.49,3.29,2.17,3.52,2.14,7.18,4.08,10.6,6.37,10,6.72,17.68,14.56,22.84,23.51A.84.84,0,0,1,153,66c3.32,10.87,3.37,23.16,1.07,36.74l0,.08c-8.78,34.81-44,48.45-80.14,45.21a.77.77,0,0,1-.3-.09c-23.21-12.68-45-26.51-45.14-70.76,0-17.38,9.6-26.28,27.35-35.21l.09,0a63.84,63.84,0,0,1,9.93-2.76c8.17-1.59,16.65-1.92,25-2.17,7.48-.22,13.12-3.51,17.56-9a9.29,9.29,0,0,0,1.7-6.66,12.62,12.62,0,0,0-.37-1.53.72.72,0,0,1,0-.43,9,9,0,0,0,.37-4C108.62,6.75,97.54-1.09,88.87.12A130.34,130.34,0,0,0,30.44,23.38,65.58,65.58,0,0,0,14.17,40.55,86.26,86.26,0,0,0,0,91.42a104.32,104.32,0,0,0,1.75,22.14c3.63,19.81,12,37.61,28.4,50,25.72,19.45,55,25.68,86.34,18.59,37.53-8.48,63.14-41.53,62.81-79.95C179.34,101.56,179.36,97.57,179.34,96.24Z"/></g></g></svg>