<svg xmlns="http://www.w3.org/2000/svg" viewBox="0 0 187.49 198.03"><defs><style>.cls-1{fill:#313131;}</style></defs><title>Cross</title><g id="Слой_2" data-name="Слой 2"><g id="Слой_1-2" data-name="Слой 1"><path class="cls-1" d="M26.33,17.61c2,1.56,3.76,2.8,5.31,4.24s3.47,1.57,4.6-.21a15,15,0,0,0,1.57-4.24c.77-2.85,2-5.26,5.54-6.19a5,5,0,0,1,4.61.71,20.38,20.38,0,0,1,4.11,3.85C63.37,32,75,47.91,87.53,63.39c.36.44.74.87,1.24,1.46.86-.81,1.61-1.54,2.38-2.26,16.37-15.23,32.65-30.54,49.15-45.65,5.9-5.4,12.32-10.37,18.57-15.47,2.38-1.94,2.76-2,5.19-.06S169,5.58,171.4,7.66a1.9,1.9,0,0,1,.25,3.09c-1,1-.57,1.83.44,2.56a42.94,42.94,0,0,0,3.71,2.57,3.3,3.3,0,0,0,2.06.19c3.33-.69,3.32-.72,5.26,1.83,1.23,1.62,2.4,3.28,3.74,4.83a1.85,1.85,0,0,1,.18,2.58c-.95,1.31-2,2.57-2.92,3.89-.32.44-.79,1.13-.61,1.45.64,1.17-.16,1.73-.92,2.41C162,51.7,142,70.88,123.25,91.08c-2.4,2.58-4.73,5.21-7.13,7.86a4.65,4.65,0,0,0,.45.75q19.2,21.64,38.44,43.25c1.79,2,4,3.73,5.86,5.68a2.51,2.51,0,0,1,.7,2,19,19,0,0,1-8.38,12.1c-2.31,1.54-4.45,3.28-6.69,4.9-.82.6-1.18,1.25-.7,2.17a2.14,2.14,0,0,1-.82,3.15c-2.3,1.6-4.39,3.45-6.66,5.09-1.25.9-2.5.61-3.74-.31-1.49-1.11-3.19-2-4.7-3.08s-2.25-.79-3.44.33c-2.39,2.28-5,4.38-7.52,6.55a5.59,5.59,0,0,1-.91.6c-3,1.65-3.9,1.51-6.3-.74-10.07-9.46-18.13-20.26-26.37-31-2.34-3-4.82-6-7.36-9.14-.45.47-.82.82-1.13,1.2L31.16,197c-1,1.21-4.27,1.37-5.47.26a32.17,32.17,0,0,0-2.56-2.46c-2.22-1.64-3.05-3.4-1.68-5.92.78-1.44-.31-2.47-2.1-2.08a36.09,36.09,0,0,0-5.64,1.8,2,2,0,0,1-2.49-.3c-1.72-1.77-3.54-3.47-5.1-5.35-1.71-2.06-3.17-4.29-4.73-6.45a2.3,2.3,0,0,1,.11-3.24c.2-.21.32-.48.51-.7,2.36-2.88,2.83-5.78.63-9-1-1.5-1.43-3.33-2.3-4.93-.72-1.32-.24-2.2.67-3.28C15.5,138.13,31.93,122.32,47.64,106a27.13,27.13,0,0,0,2.9-3.29,2.07,2.07,0,0,0-.2-1.85c-5.58-9.55-11.45-19-16.77-28.65-6.6-12-12.69-24.17-17-37-2.2-6.51-2.64-4.22,2-9.68C20.86,22.82,23.57,20.4,26.33,17.61Z"/></g></g></svg>