<svg xmlns="http://www.w3.org/2000/svg" viewBox="0 0 429 429"><defs><style>.cls-1{fill:#c1272d;}.cls-2{fill:#fff27b;}</style></defs><title>Restart</title><g id="Слой_2" data-name="Слой 2"><g id="Слой_1-2" data-name="Слой 1"><path class="cls-1" d="M429,203.19v22.62c-.4,4.06-.46,8.14-.6,12.22a133.63,133.63,0,0,1-3.78,25.06,211.34,211.34,0,0,1-19.19,51.66,217.53,217.53,0,0,1-77.93,83.42A211,211,0,0,1,271,422.62a186.83,186.83,0,0,1-24.57,5.12c-4.32.55-8.68.6-13,.86-2.55.15-5.11,0-7.64.4H203.19c-4-.36-8-.39-12-.56a137.58,137.58,0,0,1-24.51-3.65A214.25,214.25,0,0,1,71.9,376.16a216.61,216.61,0,0,1-44.45-54.37A210.79,210.79,0,0,1,6.33,270.87a200.7,200.7,0,0,1-5.07-24.38c-.56-4.08-.58-8.21-.85-12.31-.19-2.79-.08-5.59-.41-8.37v-23A90.55,90.55,0,0,0,.61,192c.15-8.56,1.72-16.87,3.57-25.17a210.16,210.16,0,0,1,20.12-54A215.72,215.72,0,0,1,172.61,2.95,137.13,137.13,0,0,1,196.49.41a29.47,29.47,0,0,0,6.7-.41h22.62c3.88.48,7.79.52,11.67.63a124.16,124.16,0,0,1,23.27,3.2A214.55,214.55,0,0,1,357.27,53a216.72,216.72,0,0,1,37.24,42.84,213.72,213.72,0,0,1,29,65.76,154.42,154.42,0,0,1,5.12,35.09A31.64,31.64,0,0,0,429,203.19Z"/><path class="cls-2" d="M144.68,202.42q-17.07,0-34.14,0c-7.24,0-11.27-4-11.27-11.32q0-34.14,0-68.29c0-4.46,1.58-7.86,5.73-9.86s7.93-1.56,11.33,1.76c6.25,6.1,12.48,12.21,18.61,18.42,1.52,1.54,2.44,1.54,4.07.07,19-17,41-27.44,66.32-30.47,58.7-7,112.64,28.28,130.26,85a113.74,113.74,0,0,1,5,40.53c-1.86,32.25-14.56,59.65-37.8,82-13.93,13.41-30.55,22.33-49,28A111.61,111.61,0,0,1,212.18,343c-33.81-2.6-62.08-16.56-84.28-42.4-2.58-3-2.44-5.74.3-8.52q9.7-9.85,19.44-19.66c3.72-3.74,6.67-3.55,10,.49q20.76,25.51,53.43,29.46c42.78,5.12,82.93-26.19,88.56-68.94,5.76-43.73-24-83.77-67.53-90.33-24-3.62-45.52,2.65-64.2,18.28-2.51,2.1-2.47,2.13-.2,4.44q9.43,9.53,18.85,19.07c3.58,3.64,4.35,7,2.58,11.19-1.84,4.34-5.1,6.38-9.85,6.35C167.72,202.37,156.2,202.42,144.68,202.42Z"/></g></g></svg>